<svg width="71" height="47" viewBox="0 0 71 47" fill="none" xmlns="http://www.w3.org/2000/svg">
<path d="M15.872 46.0159C10.7094 46.0159 6.7627 44.7359 4.03204 42.1759C1.34404 39.5732 3.62396e-05 35.6692 3.62396e-05 30.4639V4.99191C3.62396e-05 1.6639 1.53604 -9.53674e-05 4.60804 -9.53674e-05C7.68004 -9.53674e-05 9.21604 1.6639 9.21604 4.99191V30.4639C9.21604 33.1519 9.79204 35.1146 10.944 36.3519C12.1387 37.5892 13.7814 38.2079 15.872 38.2079C20.992 38.2079 23.552 35.6266 23.552 30.4639V4.99191C23.552 1.6639 25.088 -9.53674e-05 28.16 -9.53674e-05C31.232 -9.53674e-05 32.768 1.6639 32.768 4.99191V30.4639C32.768 35.6266 31.3387 39.5092 28.48 42.1119C25.6214 44.7146 21.4187 46.0159 15.872 46.0159ZM49.5135 41.7279C49.5135 44.5866 48.0202 46.0159 45.0335 46.0159C43.5829 46.0159 42.4309 45.6532 41.5775 44.9279C40.7242 44.2026 40.2975 43.1359 40.2975 41.7279V16.3839C40.2975 10.4959 41.4922 6.29324 43.8815 3.77591C46.2709 1.25857 50.0042 -9.53674e-05 55.0815 -9.53674e-05C60.2869 -9.53674e-05 64.1269 1.2799 66.6015 3.8399C69.0762 6.3999 70.3135 10.5812 70.3135 16.3839V41.7279C70.3135 44.5866 68.8202 46.0159 65.8335 46.0159C64.3829 46.0159 63.2309 45.6532 62.3775 44.9279C61.5242 44.2026 61.0975 43.1359 61.0975 41.7279V26.3039C60.2869 27.0292 59.3909 27.6479 58.4095 28.1599C57.4709 28.6719 56.3615 28.9279 55.0815 28.9279C53.2042 28.9279 51.7962 29.2692 50.8575 29.9519C49.9615 30.6346 49.5135 31.8506 49.5135 33.5999V41.7279ZM49.1295 22.9759C49.8122 22.2932 50.6229 21.7599 51.5615 21.3759C52.5429 20.9919 53.7162 20.7999 55.0815 20.7999C56.7029 20.7999 57.9402 20.6719 58.7935 20.4159C59.6895 20.1599 60.3082 19.6692 60.6495 18.9439C60.9909 18.2186 61.1615 17.1519 61.1615 15.7439C61.1615 12.5866 60.7135 10.4319 59.8175 9.2799C58.9215 8.08524 57.3215 7.4879 55.0175 7.4879C52.8842 7.4879 51.4122 8.10657 50.6015 9.34391C49.8335 10.5386 49.4495 12.7572 49.4495 15.9999C49.4495 17.6639 49.4282 19.0719 49.3855 20.2239C49.3429 21.3759 49.2575 22.2932 49.1295 22.9759Z" fill="black"/>
</svg>
